<?xml version="1.0" encoding="UTF-8"?>
<!DOCTYPE svg PUBLIC "-//W3C//DTD SVG 1.1//EN" "http://www.w3.org/Graphics/SVG/1.1/DTD/svg11.dtd">
<svg xmlns="http://www.w3.org/2000/svg" version="1.1" width="522px" height="521px" style="shape-rendering:geometricPrecision; text-rendering:geometricPrecision; image-rendering:optimizeQuality; fill-rule:evenodd; clip-rule:evenodd" xmlns:xlink="http://www.w3.org/1999/xlink">
<g><path style="opacity:1" fill="#222020" d="M -0.5,-0.5 C 173.5,-0.5 347.5,-0.5 521.5,-0.5C 521.5,173.167 521.5,346.833 521.5,520.5C 347.5,520.5 173.5,520.5 -0.5,520.5C -0.5,346.833 -0.5,173.167 -0.5,-0.5 Z"/></g>
<g><path style="opacity:1" fill="#eff0f4" d="M 287.5,111.5 C 310.851,111.81 334.184,112.643 357.5,114C 334.03,135.802 310.864,157.969 288,180.5C 287.5,157.502 287.333,134.502 287.5,111.5 Z"/></g>
<g><path style="opacity:1" fill="#f0f1f5" d="M 280.5,117.5 C 281.497,139.327 281.831,161.327 281.5,183.5C 260.5,183.5 239.5,183.5 218.5,183.5C 238.828,161.172 259.495,139.172 280.5,117.5 Z"/></g>
<g><path style="opacity:1" fill="#e2e4e8" d="M 353.5,124.5 C 356.707,125.179 359.707,126.346 362.5,128C 352.643,134.252 342.643,139.919 332.5,145C 339.395,137.937 346.395,131.103 353.5,124.5 Z"/></g>
<g><path style="opacity:1" fill="#eef0f4" d="M 177.5,132.5 C 182.511,132.334 187.511,132.501 192.5,133C 203.039,145.034 213.705,156.867 224.5,168.5C 219.648,173.517 214.982,178.684 210.5,184C 199.505,184.5 188.505,184.667 177.5,184.5C 177.5,167.167 177.5,149.833 177.5,132.5 Z"/></g>
<g><path style="opacity:1" fill="#e9ebef" d="M 171.5,135.5 C 172.487,140.305 172.821,145.305 172.5,150.5C 167.156,150.666 161.823,150.499 156.5,150C 162.003,145.663 167.003,140.83 171.5,135.5 Z"/></g>
<g><path style="opacity:1" fill="#cecfd2" d="M 218.5,183.5 C 239.5,183.5 260.5,183.5 281.5,183.5C 281.831,161.327 281.497,139.327 280.5,117.5C 280.783,116.711 281.283,116.044 282,115.5C 282.5,138.498 282.667,161.498 282.5,184.5C 260.424,184.833 239.091,184.499 218.5,183.5 Z"/></g>
<g><path style="opacity:1" fill="#eef0f4" d="M 181.5,190.5 C 214.329,189.502 247.329,189.168 280.5,189.5C 271.644,214.907 262.478,240.241 253,265.5C 229.3,240.302 205.467,215.302 181.5,190.5 Z"/></g>
<g><path style="opacity:1" fill="#bcbdc0" d="M 280.5,306.5 C 281.833,272.833 281.833,239.167 280.5,205.5C 280.987,204.527 281.487,203.527 282,202.5C 282.833,237.505 282.667,272.505 281.5,307.5C 280.893,307.376 280.56,307.043 280.5,306.5 Z"/></g>
<g><path style="opacity:1" fill="#eef0f4" d="M 280.5,205.5 C 281.833,239.167 281.833,272.833 280.5,306.5C 269.947,301.291 259.614,295.625 249.5,289.5C 259.847,261.479 270.18,233.479 280.5,205.5 Z"/></g>
<g><path style="opacity:1" fill="#e8eaee" d="M 177.5,338.5 C 180.238,337.965 182.072,338.965 183,341.5C 185.87,362.412 186.87,383.412 186,404.5C 184.211,406.229 182.044,406.896 179.5,406.5C 179.088,385.299 178.088,364.132 176.5,343C 176.773,341.467 177.106,339.967 177.5,338.5 Z"/></g>
<g><path style="opacity:1" fill="#e8eaee" d="M 67.5,341.5 C 77.731,340.79 87.731,341.957 97.5,345C 106.383,348.802 106.716,353.469 98.5,359C 87.6247,364.296 76.2914,368.629 64.5,372C 63.8333,372.667 63.1667,373.333 62.5,374C 77.48,382.3 92.48,390.634 107.5,399C 110.179,400.346 112.179,402.346 113.5,405C 113.355,405.772 113.022,406.439 112.5,407C 109.5,407.667 106.5,407.667 103.5,407C 89.7873,397.113 75.454,388.279 60.5,380.5C 59.5023,388.472 59.169,396.472 59.5,404.5C 54.9385,405.42 52.1052,403.754 51,399.5C 50.8068,381.809 50.3068,364.142 49.5,346.5C 49.5796,344.67 50.413,343.337 52,342.5C 53.9439,343.439 55.6106,344.773 57,346.5C 60.2624,344.145 63.7624,342.478 67.5,341.5 Z"/></g>
<g><path style="opacity:1" fill="#e8e9ed" d="M 307.5,382.5 C 305.833,382.5 304.167,382.5 302.5,382.5C 302.5,390.167 302.5,397.833 302.5,405.5C 300.052,406.473 297.385,406.806 294.5,406.5C 294.369,391.479 294.869,376.479 296,361.5C 298.025,350.217 304.858,344.717 316.5,345C 329.595,342.747 341.761,344.913 353,351.5C 356.194,359.387 354.361,365.887 347.5,371C 335.258,378.231 321.925,382.064 307.5,382.5 Z"/></g>
<g><path style="opacity:1" fill="#272526" d="M 74.5,347.5 C 80.5092,347.334 86.5092,347.501 92.5,348C 94.2552,348.72 95.0885,349.887 95,351.5C 93.8333,352.667 92.6667,353.833 91.5,355C 81.3172,360.504 70.6506,364.171 59.5,366C 57.5223,362.067 57.0223,357.9 58,353.5C 59.214,351.951 60.714,350.785 62.5,350C 66.6372,349.161 70.6372,348.327 74.5,347.5 Z"/></g>
<g><path style="opacity:1" fill="#232122" d="M 320.5,350.5 C 328.134,349.912 335.467,351.079 342.5,354C 347.668,360.232 346.668,365.565 339.5,370C 328.61,374.578 317.277,376.578 305.5,376C 303.993,374.527 303.326,372.693 303.5,370.5C 303.904,366.078 304.737,361.744 306,357.5C 310.594,354.48 315.427,352.146 320.5,350.5 Z"/></g>
<g><path style="opacity:1" fill="#e8eaee" d="M 280.5,358.5 C 283.571,357.925 285.571,359.091 286.5,362C 282.798,369.239 278.464,376.073 273.5,382.5C 279.184,388.35 284.684,394.35 290,400.5C 289.901,405.287 287.735,406.787 283.5,405C 279.074,398.986 274.074,393.486 268.5,388.5C 263.011,394.158 257.677,399.991 252.5,406C 250.365,406.635 248.365,406.301 246.5,405C 245.549,404.282 245.383,403.449 246,402.5C 251.61,396.896 256.444,390.729 260.5,384C 255.782,377.466 250.449,371.299 244.5,365.5C 246.123,363.209 247.957,361.209 250,359.5C 255.492,365.801 260.992,372.134 266.5,378.5C 271.176,371.804 275.843,365.138 280.5,358.5 Z"/></g>
<g><path style="opacity:1" fill="#e7e9ec" d="M 359.5,358.5 C 361.792,358.244 363.959,358.577 366,359.5C 367.563,363.19 369.063,366.857 370.5,370.5C 382.654,360.63 396.154,357.63 411,361.5C 411.782,364.257 411.282,366.757 409.5,369C 395.942,364.843 384.109,367.677 374,377.5C 371.42,380.328 370.254,383.662 370.5,387.5C 371.496,393.804 372.162,400.138 372.5,406.5C 368.446,408.716 365.612,407.716 364,403.5C 362.023,388.542 360.523,373.542 359.5,358.5 Z"/></g>
<g><path style="opacity:1" fill="#e8eaed" d="M 142.5,359.5 C 153.352,358.609 162.185,362.276 169,370.5C 170.035,375.738 168.202,379.571 163.5,382C 154.167,382.333 144.833,382.667 135.5,383C 126.201,387.95 126.201,392.95 135.5,398C 137.744,398.906 140.077,399.406 142.5,399.5C 151.451,398.14 159.951,395.473 168,391.5C 169.28,391.613 170.113,392.28 170.5,393.5C 166.753,399.396 161.419,403.23 154.5,405C 144.326,407.818 134.659,406.818 125.5,402C 120.854,396.689 119.354,390.523 121,383.5C 124.114,371.885 131.281,363.885 142.5,359.5 Z"/></g>
<g><path style="opacity:1" fill="#e7e9ed" d="M 222.5,360.5 C 229.166,359.251 233.999,361.584 237,367.5C 238.278,379.844 239.445,392.177 240.5,404.5C 238.305,405.769 236.139,405.769 234,404.5C 233.727,399.771 233.061,395.104 232,390.5C 222.921,403.393 210.754,407.559 195.5,403C 192.87,400.083 191.537,396.583 191.5,392.5C 195.79,375.878 206.123,365.212 222.5,360.5 Z"/></g>
<g><path style="opacity:1" fill="#e5e7eb" d="M 442.5,361.5 C 466.211,360.603 474.044,371.269 466,393.5C 455.781,405.491 442.948,409.324 427.5,405C 422.744,402.578 419.91,398.745 419,393.5C 416.836,382.991 420.002,374.491 428.5,368C 433.137,365.511 437.804,363.344 442.5,361.5 Z"/></g>
<g><path style="opacity:1" fill="#2a2828" d="M 146.5,365.5 C 152.716,364.787 157.716,366.787 161.5,371.5C 159.531,374.011 156.864,375.511 153.5,376C 150.5,376.167 147.5,376.333 144.5,376.5C 140.299,376.717 136.299,376.05 132.5,374.5C 136.254,369.963 140.921,366.963 146.5,365.5 Z"/></g>
<g><path style="opacity:1" fill="#232121" d="M 445.5,367.5 C 456.226,365.583 461.892,369.917 462.5,380.5C 463.013,388.977 459.346,394.81 451.5,398C 443.779,399.829 436.112,399.829 428.5,398C 426.408,396.147 425.408,393.814 425.5,391C 426.331,378.015 432.998,370.181 445.5,367.5 Z"/></g>
<g><path style="opacity:1" fill="#252323" d="M 219.5,368.5 C 223.584,368.043 227.417,368.71 231,370.5C 231.147,382.365 225.98,391.198 215.5,397C 209.501,400.813 204.001,400.313 199,395.5C 199.137,387.062 202.637,380.229 209.5,375C 212.761,372.548 216.094,370.381 219.5,368.5 Z"/></g>
<g><path style="opacity:1" fill="#787779" d="M 307.5,382.5 C 306.432,383.434 305.099,383.768 303.5,383.5C 303.825,391.019 303.492,398.352 302.5,405.5C 302.5,397.833 302.5,390.167 302.5,382.5C 304.167,382.5 305.833,382.5 307.5,382.5 Z"/></g>
</svg>
